PathFileType	4	(X/Y/Z)	s01c0301.trc
DataRate	CameraRate	NumFrames	NumMarkers	Units	OrigDataRate	OrigDataStartFrame	OrigNumFrames
200	200	4	48	mm	200	1000	2000
Frame#	Time	racr			lacr			c7			jug			rlel			rdr			llel			ldr			s2			lic			ric			lasi			rasi			rpsi			lpsi			rgt			lgt			rth1			rth2			rth3			rth4			rlfc			rsh1			rsh2			rsh3			rsh4			rlmal			rmmal			rcal			rtoe			rmt5			lth1			lth2			lth4			lth3			llfc			lsh1			lsh2			lsh3			lsh4			llmal			lmmal			lcal			ltoe			lmt5			SBIKE			LBIKE			RBIKE			
		X1	Y1	Z1	X2	Y2	Z2	X3	Y3	Z3	X4	Y4	Z4	X5	Y5	Z5	X6	Y6	Z6	X7	Y7	Z7	X8	Y8	Z8	X9	Y9	Z9	X10	Y10	Z10	X11	Y11	Z11	X12	Y12	Z12	X13	Y13	Z13	X14	Y14	Z14	X15	Y15	Z15	X16	Y16	Z16	X17	Y17	Z17	X18	Y18	Z18	X19	Y19	Z19	X20	Y20	Z20	X21	Y21	Z21	X22	Y22	Z22	X23	Y23	Z23	X24	Y24	Z24	X25	Y25	Z25	X26	Y26	Z26	X27	Y27	Z27	X28	Y28	Z28	X29	Y29	Z29	X30	Y30	Z30	X31	Y31	Z31	X32	Y32	Z32	X33	Y33	Z33	X34	Y34	Z34	X35	Y35	Z35	X36	Y36	Z36	X37	Y37	Z37	X38	Y38	Z38	X39	Y39	Z39	X40	Y40	Z40	X41	Y41	Z41	X42	Y42	Z42	X43	Y43	Z43	X44	Y44	Z44	X45	Y45	Z45	X46	Y46	Z46	X47	Y47	Z47	X48	Y48	Z48	
1000	5.0000	741.629482	1353.705654	-172.187168	738.042875	1281.625131	-493.004520	718.929549	1397.792074	-333.518299	695.043399	1233.282630	-312.555379	670.233678	1093.422320	-33.210910	735.305667	848.565945	-84.722499	579.939636	1043.833782	-595.145533	711.574146	872.765132	-464.597918	173.653859	1227.810971	-267.185786	325.296172	1205.044642	-453.897218	346.773511	1229.566105	-129.943428	327.787559	1158.272712	-425.776178	363.105559	1176.717112	-154.640245	210.995979	1270.125339	-220.920986	200.000366	1263.553225	-325.756084	292.625495	1117.502723	-84.022043	256.957382	1071.055517	-456.020120	379.322477	1015.551971	-71.538108	433.755785	953.405873	-79.002208	487.333548	881.272913	-89.657114	471.276022	984.817305	-105.668932	505.796575	769.560809	-109.181404	401.591641	712.036107	-70.838150	331.156865	664.850249	-72.425287	252.049496	624.017264	-79.332250	354.176677	626.935749	-112.645772	137.406164	573.654782	-93.253944	170.314561	549.300951	-170.617807	95.109884	594.500722	-147.053206	199.842539	342.888003	-146.990229	130.324457	420.521712	-72.566173	298.008561	950.614800	-452.424305	355.212454	882.783948	-449.100252	397.830428	916.506217	-448.688104	403.331085	814.317700	-429.874531	452.142544	712.059993	-409.776414	388.770191	618.559384	-445.676359	360.931196	536.033845	-439.974263	331.141445	456.572715	-428.549290	413.450271	521.199143	-411.364014	282.769848	338.824252	-414.956018	337.386215	355.746078	-339.560545	230.723861	319.735569	-374.587658	487.382754	215.589364	-382.552009	380.357665	225.031042	-448.628308	-227.478420	890.955902	-253.888065	-21.193667	80.227673	-454.123687	-21.172520	80.441359	-53.909460	
1001	5.0050	741.168099	1354.478608	-171.966451	738.601017	1280.911062	-491.847408	718.888897	1397.899797	-333.525112	695.067106	1233.816472	-311.697548	669.884592	1093.942963	-34.103140	735.314335	848.878656	-85.049774	581.771317	1043.378233	-596.127940	711.796059	871.933333	-465.000728	173.275800	1226.572608	-269.162990	324.615803	1202.477677	-455.303397	345.833593	1230.732968	-131.083828	328.104478	1156.103757	-426.865053	362.555310	1177.691332	-155.368007	210.239447	1269.308142	-223.012230	200.025527	1262.014098	-327.757394	292.440636	1118.843722	-84.365718	255.723079	1069.146179	-456.282978	381.279070	1019.021406	-70.513504	437.179606	958.090613	-77.656753	492.488373	887.263478	-88.113243	474.087245	990.438519	-104.302773	511.460100	775.599162	-107.735026	407.422776	719.023877	-70.024769	336.391238	672.695179	-71.937506	256.852301	632.816204	-79.307414	359.231484	634.221289	-111.711445	141.779567	582.727037	-93.850812	175.120946	558.771992	-171.093568	98.940772	603.085628	-147.583533	207.025698	352.870921	-147.219324	136.540346	429.697602	-72.949641	293.691995	948.130220	-452.594985	349.211464	878.752062	-449.297280	392.767693	911.109760	-449.591779	395.391803	808.966975	-430.174203	443.382333	705.885091	-410.188194	381.869043	611.473545	-446.112745	354.861636	528.595953	-440.216575	325.760443	449.005936	-428.987021	407.140863	514.513262	-410.894339	277.523653	331.321028	-414.666711	334.257087	350.291056	-340.493491	226.140060	313.171908	-374.387070	481.352721	205.440212	-382.169686	374.438145	216.366015	-448.333987	-227.485610	890.952457	-253.903897	-21.203941	80.215804	-454.120985	-21.162309	80.447792	-53.919851	
1002	5.0100	740.551605	1355.372592	-171.506448	739.217940	1280.440862	-490.563722	718.816784	1398.116303	-333.335880	695.162207	1234.203426	-310.830779	669.413807	1094.407653	-34.909521	735.601687	849.309672	-85.821876	583.812568	1043.171584	-596.890396	711.720615	870.899123	-465.606177	172.994526	1225.612062	-271.271353	324.452249	1200.390371	-456.640173	344.965277	1231.910792	-132.317584	328.409755	1154.092699	-428.064186	361.888009	1178.751650	-156.221155	209.494781	1268.634095	-225.250091	200.104070	1260.618609	-329.840479	292.186168	1120.240284	-84.797856	254.339002	1067.626504	-456.596099	382.709531	1022.454602	-69.597401	440.107996	962.846130	-76.177795	497.119243	893.223069	-86.384669	476.443933	996.078329	-102.763864	517.380795	782.024432	-106.060207	413.354600	726.101357	-69.335550	341.866600	680.594804	-71.623780	261.986672	641.456336	-79.392174	364.662652	641.615143	-110.954428	147.253033	590.913606	-94.584182	181.682232	567.833168	-171.855607	103.502506	611.192327	-148.119924	214.648105	362.340985	-147.468480	143.364744	438.496374	-73.217834	289.531255	945.916713	-453.003532	343.201140	875.101781	-449.868474	387.662454	906.380752	-450.427498	387.577118	804.239136	-430.788845	434.392969	699.948905	-410.696315	374.398839	604.577787	-446.799854	348.205471	521.593979	-440.536174	319.924514	441.706025	-429.254097	400.337925	508.190086	-410.731878	271.380169	324.825119	-415.087463	330.560475	345.228543	-341.326961	221.070792	307.355947	-374.572977	474.220620	194.963379	-381.264335	368.069912	208.126725	-448.055770	-227.510295	890.942931	-253.891400	-21.185600	80.218680	-454.126757	-21.148528	80.445308	-53.918696	
1003	5.0150	739.872502	1357.039954	-169.187874	739.775839	1280.210203	-489.236954	718.695379	1398.462598	-332.975166	695.239796	1234.960802	-309.840954	668.917234	1094.910262	-35.720579	735.416024	849.484337	-85.629567	586.056084	1042.853739	-597.431495	712.211577	870.094324	-465.864009	172.786482	1224.846746	-273.349636	324.750756	1199.001872	-458.124098	343.956150	1233.002368	-133.519543	328.863634	1152.496883	-429.228771	361.236471	1179.824085	-157.006163	208.718017	1268.253391	-227.383486	200.314640	1259.467621	-332.131485	291.905064	1121.694618	-85.317094	252.950163	1066.327516	-456.936814	383.667881	1025.931739	-68.694621	442.481645	967.555166	-74.644075	501.467208	899.235652	-84.324398	478.227276	1001.560978	-101.256963	523.402009	788.733789	-104.434217	419.408377	733.422904	-68.692943	347.751341	688.194928	-71.284206	267.599601	649.564221	-79.550222	370.648045	649.244227	-110.521072	152.593618	599.212910	-94.818672	186.973624	575.810267	-171.928243	108.741032	618.876070	-148.622209	222.643806	371.360634	-147.782994	150.586555	446.857749	-73.624075	285.465535	944.020972	-453.617588	337.342178	871.792662	-450.636501	382.417340	902.147258	-451.402560	380.055950	799.980452	-431.632469	425.110588	694.340230	-411.386212	366.324431	598.202818	-447.592957	341.015696	514.948582	-441.010037	313.542635	434.877026	-429.612344	393.084714	502.202244	-410.915165	265.633975	317.808195	-414.396357	326.331206	340.559839	-342.065522	215.892474	301.825205	-373.894178	467.809295	186.097904	-381.673544	361.208635	200.384396	-447.787414	-227.572750	890.895806	-254.047395	-21.185186	80.211300	-454.110793	-21.138256	80.459194	-53.910550	
